<svg id="Layer_1" data-name="Layer 1" xmlns="http://www.w3.org/2000/svg" viewBox="0 0 1024 1024"><defs><style>.cls-1{fill:#050528;}.cls-2{fill:#bff896;}.cls-3{fill:#1d0a88;}.cls-4{fill:#fff;}</style></defs><title>explore-icons</title><circle class="cls-1" cx="512" cy="512" r="360"/><path class="cls-2" d="M536.26,727.54,381.74,683s-16.92,77.34-14,158.89A358.78,358.78,0,0,0,512,872a363.11,363.11,0,0,0,50.59-3.53,131.74,131.74,0,0,0-.14-34.2S537.57,779.92,536.26,727.54Z"/><ellipse class="cls-2" cx="455.84" cy="543.15" rx="182.56" ry="198.8"/><path class="cls-2" d="M578.17,643.74,638.4,625.4s19.64,10.48,7.86,32.74-51.07,121.78-212.14,65.47"/><path class="cls-3" d="M376.5,319s57.62-90.35,199-78.57S803.4,417.19,813.88,476.12c0,0-48.45-86.43-100.83-90.36,0,0,44.52,146.66,100.83,187.26,0,0-62.86-3.93-104.76-51.07s-148-112.62-220-110c0,0,45.83,21,57.62,34,0,0-116.55,14.65-170.24-39.82"/><path class="cls-2" d="M288,527.19s-95.59-134.88,62.86-285.47c0,0,70.71,7.86,26.19,171.54"/><path class="cls-3" d="M295.29,524.16s30.12,119.16,78.57,142.74c0,0-11.78,2.62-30.12-10.48,0,0,65.48,86.43,94.28,189.88,0,0-142.74-58.93-168.93-184.64,0,0-9.17,41.9,0,55,0,0-39.58-150.59-4.07-243.57"/><circle class="cls-4" cx="740.49" cy="691.27" r="10.95"/><circle class="cls-4" cx="437.68" cy="215.49" r="8.38"/><circle class="cls-4" cx="704.62" cy="586.49" r="5.34"/><circle class="cls-4" cx="610.23" cy="808.51" r="2.7"/><circle class="cls-4" cx="209.28" cy="579.82" r="3.35"/><circle class="cls-4" cx="674.04" cy="221.93" r="3.35"/><path class="cls-2" d="M556.14,364.65s31.83,34.77,65.45,33.87c0,0,69.88-136,53.4-150.32S556.14,364.65,556.14,364.65Z"/></svg>