<svg id="Layer_1" data-name="Layer 1" xmlns="http://www.w3.org/2000/svg" xmlns:xlink="http://www.w3.org/1999/xlink" viewBox="0 0 1024 1024"><defs><style>.cls-1{fill:none;}.cls-2{fill:#9eff71;}.cls-3{clip-path:url(#clip-path);}.cls-4{fill:#fff;}</style><clipPath id="clip-path"><circle id="SVGID" class="cls-1" cx="512" cy="513" r="360"/></clipPath></defs><title>explore-icons</title><circle class="cls-2" cx="512" cy="513" r="360"/><g class="cls-3"><path class="cls-4" d="M416.34,231.69a19,19,0,0,1,18.74,18.74v102l59-56.22q9-8.33,20.82-3.47a21.93,21.93,0,0,1,5.55,4.16q8.33,9,3.47,20.13a72.6,72.6,0,0,1-4.16,6.25l-43,40.25,52.05,70.79q7.63,10.41.69,20.82a24.14,24.14,0,0,1-4.86,4.86q-9.72,7.63-20.82.69a13.67,13.67,0,0,1-4.86-4.16l-49.28-67.32-14.58,13.88v42.34q0,10.41-9,16-9.72,5.55-18.74,0t-9-16v-195q0-11.79,10.41-16.66A14.55,14.55,0,0,1,416.34,231.69Z"/><path class="cls-4" d="M672.43,463.5A15.89,15.89,0,0,1,658.55,469q-12.49-.7-16.66-11.8-21.52,11.1-47.19,2.78a94.45,94.45,0,0,1-11.8-6.25Q560,439.2,553.75,410.06q-9.72-45.8,11.8-77.73Q585,306,616.21,306a56.23,56.23,0,0,1,26.37,6.94,68.36,68.36,0,0,1,11.8,8.33q20.82,18.74,22.9,51.36v70.79Q677.29,457.25,672.43,463.5ZM607.19,344.82q-13.88,4.16-16.66,18a82,82,0,0,0,0,42.34,12.29,12.29,0,0,0,1.39,5.55q5.55,13.19,19.43,15.27,8.33.7,13.19-.69,13.88-5.55,16-28.45.69-31.92-4.16-40.95-7.64-12.49-21.52-12.49A24.43,24.43,0,0,0,607.19,344.82Z"/><path class="cls-4" d="M743.91,233.78a18.85,18.85,0,0,1,13.88,5.55,15.85,15.85,0,0,1,4.86,13.19V300.4h22.9q11.1,0,16.66,9.72,5.55,8.33,0,18t-16.66,9h-22.9v72.18q0,10.41,3.47,13.88,2.08,2.78,6.94,3.47,5.55,2.08,13.88-.69,11.1-3.46,19.43,4.86,6.94,6.95,4.16,18a17.46,17.46,0,0,1-13.19,13.19l-13.19,2.08q-30.54,2.08-45.81-16.66Q725.87,433,725.87,409.36V337.18h-11.1q-11.11.7-16-9-5.55-9.71,0-18,4.86-9.71,16-9.72h11.1V252.51q0-11.1,9.72-17.35A26.3,26.3,0,0,1,743.91,233.78Z"/><path class="cls-4" d="M685.62,576.13v136q0,41.64-18,59Q653,786.41,619.69,786.41q-31.93,4.17-58.3-11.8-9-5.56-9-16,0-11.11,9.72-16,9-5.55,18,.69,11.1,6.25,37.48,6.25H619q18,0,22.9-4.86,6.25-5.55,6.25-29.15-19.44,9.72-41.64,5.55-44.42-11.79-52.74-63.85A105.23,105.23,0,0,1,552.37,640V576.13q0-12.49,11.1-17.35a15.5,15.5,0,0,1,6.94-1.39,18.84,18.84,0,0,1,13.88,5.55,18,18,0,0,1,5.55,13.19V640q0,29.85,15.27,40.95,6.94,4.86,13.88,4.86a31.38,31.38,0,0,0,15.27-4.86q9.71-4.16,12.49-11.1a58.56,58.56,0,0,0,1.39-13.88V576.13q0-10.41,9.72-16.66,9.71-4.86,18,0Q685.62,565.72,685.62,576.13Z"/><path class="cls-4" d="M787.29,561.55a15.85,15.85,0,0,1,4.86,13.19V732.28q0,22.9-11.1,37.48-16,18-46.5,16.66l-13.88-2.78q-9.71-2.08-12.49-12.49t4.16-18q8.33-7.63,19.43-4.16,15.26,3.46,20.82-2.78,2.77-4.16,2.78-13.88V574.74a12.49,12.49,0,0,1,2.08-7.63q4.85-11.1,16-11.1A18.85,18.85,0,0,1,787.29,561.55Zm0-64.54a17.83,17.83,0,0,1,4.86,13.88v3.47q.69,9.72-9,15.27-8.33,5.56-18,0t-9.72-15.27v-3.47a14.57,14.57,0,0,1,2.08-7.63q4.85-10.41,16-11.1A20.33,20.33,0,0,1,787.29,497Z"/></g></svg>