<svg xmlns="http://www.w3.org/2000/svg" viewBox="0 0 181.04 204.62"><defs><style>.cls-1{fill:#fff;}.cls-2{fill:#0c0;}.cls-3{fill:#ffc;}</style></defs><title>katyj-characters</title><g id="Layer_4" data-name="Layer 4"><path class="cls-1" d="M35.31,100.21c-7.9-.87-17.5,2.14-25,4.61-4.28,1.41-10,5-9.1,10.34,1.64,9.27,18-.39,8.8-7.08a53.07,53.07,0,0,1,6.92-1.9c6-1.49,12.14-3.66,18.35-3C37.23,103.43,37.21,100.42,35.31,100.21Z"/><path class="cls-1" d="M101.69,157.45c-.47-1.87-3.36-1.08-2.89.8a40.84,40.84,0,0,1,.28,20.19,30.66,30.66,0,0,1-1,3.29c-1.55-2.85-5-4.47-8.76-1.17-5.59,5-1.36,12.81,4.86,10a4.89,4.89,0,0,0,1.49-.44,5.53,5.53,0,0,0,3-3.31C104.7,179.13,103.82,166,101.69,157.45Z"/><path class="cls-1" d="M41.86,133.72a25.37,25.37,0,0,0-21.69,13.64,19.81,19.81,0,0,0-7.34-5c-3.47-1.48-8-1.73-11.1.83-2.92,2.43-1.66,4.48,1.18,6.08a26.21,26.21,0,0,0,16,2.83,1.65,1.65,0,0,0,.49-.14,1.46,1.46,0,0,0,2.27-.76,22.28,22.28,0,0,1,20.17-14.47C43.78,136.65,43.79,133.65,41.86,133.72Z"/><path class="cls-1" d="M65,157.73c-5.45-.71-10.53,3.49-14.44,6.84a28.45,28.45,0,0,0-6.7,8.15c-1.27-2.52-3.92-3.87-8-4.41-5.85-.78-10.82,2.36-11.86,8.31a1.55,1.55,0,0,0,.69,1.69c3.09,1.65,19,9.3,19.48,1.53a1.31,1.31,0,0,0,.35-.62,22.79,22.79,0,0,1,6.86-11.41c3.33-3.13,8.72-7.71,13.57-7.08C66.93,161,66.91,158,65,157.73Z"/><path class="cls-2" d="M150.34.08s60.32,117.57-90.47,148.17C59.87,148.24,15.72,28,150.34.08Z"/><path class="cls-3" d="M74.29,124.2S108.38,54.71,87,8.82c0,0-92.66,56.38-36.28,150.35,0,0,106.21,30.59,124.13-94.84C174.82,64.32,114.06,40.29,74.29,124.2Z"/><ellipse cx="59.28" cy="102.93" rx="8.38" ry="3.64" transform="matrix(0.53, -0.85, 0.85, 0.53, -59.4, 98.24)"/><ellipse cx="89.51" cy="123.87" rx="8.38" ry="3.64" transform="translate(-63.01 133.6) rotate(-57.8)"/></g></svg>