<svg xmlns="http://www.w3.org/2000/svg" viewBox="0 0 239.03 363.09"><defs><style>.cls-1{fill:#6c6;}.cls-2{fill:#ccc;}.cls-3{fill:#999;}.cls-4{fill:#9f9;}.cls-5{fill:#009;}.cls-6{fill:#003;}.cls-7{fill:#cff;opacity:0.2;}</style></defs><title>katyj-characters</title><g id="Layer_3" data-name="Layer 3"><path class="cls-1" d="M99.14,211.83s34.41-.53,0,52.15c0,0,42.75.26,26.53,52.94,0,0-44.27-12.44-49.83-49S99.14,211.83,99.14,211.83Z"/><path class="cls-1" d="M109.5,169.93s32.39-9,37.84-3.3,31,55.33,2.21,77.88c0,0-27-24.6-17.22-53.32L102.61,190"/><path class="cls-2" d="M61.25,137.25s-8.73-9.26-18-3.44-40,63.53-38.38,72.53S15.93,234.39,33,223.54s40.13-70.67,40.13-70.67Z"/><path class="cls-3" d="M139.44,41.24S153,15.78,175,12.27c0,0,3,26.34-10.66,39.29"/><path class="cls-4" d="M76.85,120.14s-1,48.55-24,62.84-35.2,69.62-7.15,74.91,58-28.85,61.94-63.53.73-47.66.73-47.66Z"/><circle class="cls-4" cx="118.79" cy="102.36" r="45.55"/><path class="cls-4" d="M160,105.32s3.71,24.25,10.27,32.53c0,0-8.85,16-12.84,18.83s-55.9,4-74-25.68S160,105.32,160,105.32Z"/><path class="cls-5" d="M146.86,54.53s25.68.86,32.24,27.11S189.95,109,189.95,109,159.7,97.9,154.28,86.78c0,0,1.62,6.77,4.27,8.28,0,0-12.9-4.81-18.82-13.27s-31.39-11.32-31.39-11.32Z"/><ellipse class="cls-6" cx="132.05" cy="100.11" rx="11.74" ry="5.38" transform="translate(-10.58 184.47) rotate(-67.77)"/><path class="cls-2" d="M82.65,140.83c-4.17-18.22,18.66-57.51,38.63-71.34,15.42-10.67,55,15.3,72.29,27.72a69.59,69.59,0,1,0-56.68,76.1C118.52,167,85.64,153.89,82.65,140.83Z"/><path class="cls-7" d="M194,104.89a70.23,70.23,0,0,0-.43-7.68C176.3,84.79,136.7,58.81,121.29,69.49c-20,13.83-42.8,53.12-38.63,71.34,3,13.06,35.87,26.12,54.24,32.47A69.55,69.55,0,0,0,194,104.89Z"/><path class="cls-2" d="M84.13,60.34S74,25.88,110.25.2c0,0,14.49,27.66,0,53.12"/><polygon class="cls-2" points="170.26 57.92 229.43 38.83 184 77.02 170.26 57.92"/><path class="cls-4" d="M96.49,171.1s35.75,7.7,40.59,12.05-1.95,73.18-36.62,81.39c0,0-9.74-33.92,4.24-60.88,0,0-12-6.62-14.61-15.88"/><path class="cls-4" d="M76.54,208.39s20.12,1.08,14.09,33.1-32.41,38.59-32.41,38.59,24,18.5-20.66,67.87c0,0-32.8-26.21-1.72-81.31,0,0-12.15-14.19-3.46-51.39Z"/><path class="cls-2" d="M44.15,140.78c.06-4.23.08-8.45,0-12.68,0-3.7.27-7.84-1.93-11C39,112.32,31.1,111,25.76,111.42c-6.29.5-9.22,5.68-10.22,11.36-1.06,6,2.07,9.2,8.07,10,10.44,1.38,30.06-10.21,21-22-3.35-4.39-9.92-9.64-15.85-8.72-6.48,1-8.09,10.85-7.4,16.17,1,7.36,11,8.16,16.87,8.46a44.45,44.45,0,0,0,25.15-6.55c3.3-2,.29-7.19-3-5.18-8.75,5.29-19.5,7.36-29.48,4.58-3.54-1-3.81-2.2-3.32-5.7a12.14,12.14,0,0,1,1-4.19c1-1.64,2.17-1.52,4-.92,2.35.75,4.62,2.78,6.29,4.57,2.79,3,2.11,5.2-.59,7.9-3.4,3.4-8.31,6.18-13.28,5.79-.69-.05-3.55-.38-3.91-1.09-.25-.49.3-2.19.42-2.74.59-2.76,1.65-5,4.62-5.64,2-.4,4.49.18,6.45.64,3.61.84,5,2.7,5.48,6.38.66,5.28.12,11,0,16.3-.06,3.86,5.94,3.86,6,0Z"/></g></svg>