<svg xmlns="http://www.w3.org/2000/svg" viewBox="0 0 217.53 64"><title>katyj-title</title><g id="Layer_2" data-name="Layer 2"><path d="M3.87.17A3.87,3.87,0,0,1,6.71,1.36,3.87,3.87,0,0,1,7.9,4.2V26.11L20.57,14A3.91,3.91,0,0,1,25,13.29a4.7,4.7,0,0,1,1.19.89A3.72,3.72,0,0,1,27,18.5a15.6,15.6,0,0,1-.89,1.34l-9.24,8.64L28,43.69a3.59,3.59,0,0,1,.15,4.47,5.18,5.18,0,0,1-1,1,3.58,3.58,0,0,1-4.47.15,2.93,2.93,0,0,1-1-.89L11,34,7.9,37v9.09A3.8,3.8,0,0,1,6,49.51a3.7,3.7,0,0,1-4,0A3.8,3.8,0,0,1,0,46.08V4.2A3.65,3.65,0,0,1,2.24.62,3.13,3.13,0,0,1,3.87.17Z"/><path d="M40.09,1.21a4.29,4.29,0,0,1,1.34,3.13v.6A3.8,3.8,0,0,1,39.5,8.37a3.69,3.69,0,0,1-4,0,3.8,3.8,0,0,1-1.94-3.43v-.6A3,3,0,0,1,33.83,3,3.61,3.61,0,0,1,37.11.32,3.39,3.39,0,0,1,40.09,1.21Zm.15,14.61a3.87,3.87,0,0,1,1.19,2.83V46.08a3.8,3.8,0,0,1-1.94,3.43,3.7,3.7,0,0,1-4,0,3.8,3.8,0,0,1-1.94-3.43V18.65A3.13,3.13,0,0,1,34,17a3.38,3.38,0,0,1,3.43-2.38A3.57,3.57,0,0,1,40.24,15.82Z"/><path d="M55.89.62a4,4,0,0,1,3,1.19,3.4,3.4,0,0,1,1,2.83V14.93h4.92A3.87,3.87,0,0,1,68.41,17a3.45,3.45,0,0,1,0,3.88,3.58,3.58,0,0,1-3.58,1.94H59.92v15.5a4.31,4.31,0,0,0,.74,3,2.14,2.14,0,0,0,1.49.75,4.47,4.47,0,0,0,3-.15,3.88,3.88,0,0,1,4.17,1,3.81,3.81,0,0,1,.89,3.88,3.75,3.75,0,0,1-2.83,2.83l-2.83.45q-6.56.45-9.84-3.58A12.15,12.15,0,0,1,52,38.33V22.83H49.63a3.3,3.3,0,0,1-3.43-1.94,3.44,3.44,0,0,1,0-3.88,3.56,3.56,0,0,1,3.43-2.09H52V4.64A4.2,4.2,0,0,1,54.1.92,5.65,5.65,0,0,1,55.89.62Z"/><path d="M77.35.17a3.87,3.87,0,0,1,2.83,1.19A3.87,3.87,0,0,1,81.38,4.2V26.11L94,14a3.91,3.91,0,0,1,4.47-.75,4.7,4.7,0,0,1,1.19.89,3.72,3.72,0,0,1,.75,4.32,15.6,15.6,0,0,1-.89,1.34l-9.24,8.64,11.18,15.2a3.59,3.59,0,0,1,.15,4.47,5.18,5.18,0,0,1-1,1,3.58,3.58,0,0,1-4.47.15,2.93,2.93,0,0,1-1-.89L84.51,34l-3.13,3v9.09a3.8,3.8,0,0,1-1.94,3.43,3.7,3.7,0,0,1-4,0,3.8,3.8,0,0,1-1.94-3.43V4.2A3.65,3.65,0,0,1,75.72.62,3.13,3.13,0,0,1,77.35.17Z"/><path d="M132.35,50a3.41,3.41,0,0,1-3,1.19,3.72,3.72,0,0,1-3.58-2.53,12.73,12.73,0,0,1-10.14.6,20.2,20.2,0,0,1-2.53-1.34,14.09,14.09,0,0,1-6.26-9.39q-2.09-9.84,2.53-16.69a12.92,12.92,0,0,1,10.88-5.66,12.07,12.07,0,0,1,5.66,1.49,14.66,14.66,0,0,1,2.53,1.79q4.47,4,4.92,11v15.2A7.09,7.09,0,0,1,132.35,50Zm-14-25.49a4.79,4.79,0,0,0-3.58,3.88,17.62,17.62,0,0,0,0,9.09,2.63,2.63,0,0,0,.3,1.19,5.09,5.09,0,0,0,4.17,3.28,8.18,8.18,0,0,0,2.83-.15q3-1.19,3.43-6.11.15-6.86-.89-8.79A5.14,5.14,0,0,0,120,24.17,5.24,5.24,0,0,0,118.34,24.47Z"/><path d="M147.71.62a4,4,0,0,1,3,1.19,3.4,3.4,0,0,1,1,2.83V14.93h4.92A3.87,3.87,0,0,1,160.23,17a3.45,3.45,0,0,1,0,3.88,3.58,3.58,0,0,1-3.58,1.94h-4.92v15.5a4.31,4.31,0,0,0,.74,3,2.14,2.14,0,0,0,1.49.75,4.47,4.47,0,0,0,3-.15,3.88,3.88,0,0,1,4.17,1,3.81,3.81,0,0,1,.89,3.88,3.75,3.75,0,0,1-2.83,2.83l-2.83.45q-6.56.45-9.84-3.58a12.15,12.15,0,0,1-2.68-8.2V22.83h-2.38A3.3,3.3,0,0,1,138,20.89,3.44,3.44,0,0,1,138,17a3.56,3.56,0,0,1,3.43-2.09h2.38V4.64A4.2,4.2,0,0,1,145.92.92,5.65,5.65,0,0,1,147.71.62Z"/><path d="M194.66,18.65V47.87q0,8.94-3.88,12.67-3.13,3.28-10.28,3.28A18.8,18.8,0,0,1,168,61.28,3.8,3.8,0,0,1,166,57.85a3.56,3.56,0,0,1,2.09-3.43,3.29,3.29,0,0,1,3.88.15q2.38,1.34,8,1.34h.3q3.87,0,4.92-1,1.34-1.19,1.34-6.26a13.79,13.79,0,0,1-8.94,1.19q-9.54-2.53-11.33-13.71a22.6,22.6,0,0,1-.3-3.73V18.65a3.74,3.74,0,0,1,2.39-3.73,3.33,3.33,0,0,1,1.49-.3,4,4,0,0,1,3,1.19,3.87,3.87,0,0,1,1.19,2.83V32.37q0,6.41,3.28,8.79a5.17,5.17,0,0,0,3,1,6.73,6.73,0,0,0,3.28-1,4.63,4.63,0,0,0,2.68-2.38,12.58,12.58,0,0,0,.3-3V18.65a4.08,4.08,0,0,1,2.09-3.58,3.86,3.86,0,0,1,3.88,0A4.09,4.09,0,0,1,194.66,18.65Z"/><path d="M216.49,15.52a3.4,3.4,0,0,1,1,2.83V52.19a12.92,12.92,0,0,1-2.38,8q-3.43,3.87-10,3.58l-3-.6a3.39,3.39,0,0,1-2.68-2.68,3.92,3.92,0,0,1,.89-3.88,4,4,0,0,1,4.17-.89q3.28.74,4.47-.6a5.59,5.59,0,0,0,.6-3V18.36a2.68,2.68,0,0,1,.45-1.64,3.54,3.54,0,0,1,3.43-2.38A4,4,0,0,1,216.49,15.52Zm0-13.86a3.83,3.83,0,0,1,1,3v.75a3.34,3.34,0,0,1-1.94,3.28,3.44,3.44,0,0,1-3.87,0,3.64,3.64,0,0,1-2.09-3.28V4.64A3.13,3.13,0,0,1,210.08,3,3.83,3.83,0,0,1,213.51.62,4.37,4.37,0,0,1,216.49,1.66Z"/></g></svg>