
<svg xmlns="http://www.w3.org/2000/svg" version="1.1" xmlns:xlink="http://www.w3.org/1999/xlink" preserveAspectRatio="none" x="0px" y="0px" width="1280px" height="540px" viewBox="0 0 1280 540">
<defs>
<g id="space_unicorn_su_tail_0_Layer0_0_FILL">
<path fill="#3366CC" stroke="none" d="
M -43.75 -35.65
L -43.75 -22.65 -41.4 -23.55
Q -38.4 -24.5 -35.05 -24.65 -24.45 -25.15 -14.75 -17.65 -9.6 -13.7 -8.5 -5.8 -7.9 -1.7 -8.35 10.15 -8.75 21.35 -7.5 27.7 -5.6 37.5 0.75 44.35 12.65 57.15 29.4 49.3 37.75 45.35 43.75 38.85 36 41.85 30.15 39.4 18.4 34.55 27.75 7.35 37.95 -22.25 26.3 -37.95 17.15 -50.35 -3.25 -52.15 -17.3 -53.4 -31.95 -44.65 -36.5 -41.9 -40.6 -38.5
L -43.75 -35.65 Z"/>
</g>

<g id="space_unicorn_su_ear_0_Layer0_0_FILL">
<path fill="#66FF66" stroke="none" d="
M 10.15 3.5
Q 3.5 8.55 1.2 16.1 -3.8 32.65 12.35 56.75 12.85 57.45 13.35 58.2 20.7 68.75 32.05 80.8
L 35.85 74.45
Q 37.35 71.3 38.45 68.05 39.75 64.25 40.45 60.3 40.7 58.7 40.9 57.1 44.15 27.9 16.25 0 13.45 1 10.15 3.5 Z"/>
</g>

<g id="space_unicorn_su_body_0_Layer0_0_FILL">
<path fill="#BAFFBA" stroke="none" d="
M 38.45 81.4
Q 28.35 71.65 16.65 64.85
L 14.65 63.85
Q 14.3138671875 64.35859375 13.95 64.85 -4.65 89.9 1.55 115.7 7.75 141.5 26 150.45 40.65 157.65 62.3 153.85 67.7513671875 152.8796875 73.45 151.25 67.191015625 109.1623046875 38.45 81.4 Z"/>

<path fill="#66FF66" stroke="none" d="
M 338.5 240.7
L 330.65 132.1 187.5 148.7 136.4 11.3
Q 135.3 14.55 133.8 17.7
L 130 24.05
Q 118.65 12 111.3 1.45 110.8 0.7 110.3 0 108.7 0.65 107 1.35 80.15 12.7 58.8 26.1 29.53515625 44.341796875 14.65 63.85
L 16.65 64.85
Q 28.35 71.65 38.45 81.4 67.191015625 109.1623046875 73.45 151.25 83.889453125 148.27734375 95.15 143.1 103.9 139.15 109.5 135.7
L 151.5 266.7 338.5 240.7 Z"/>
</g>

<g id="space_unicorn_su_mane_0_Layer0_0_FILL">
<path fill="#3366CC" stroke="none" d="
M 0.5 -0.6
Q 8.95 0.05 26.55 -6.7 35.4 -10.1 42.5 -13.6 27.8 -12.95 4.95 -23.45 -6.5 -28.7 -15 -34.1 -7.5 -32.2 5.5 -36.7 12 -38.95 17 -41.6 5.15 -41.6 -19.85 -50.85 -32.35 -55.45 -42.5 -60.1
L -36 48.9
Q -11 53.3 22.25 48.55 38.9 46.15 50.5 42.9 30.2 42.35 11.6 35.1 2.25 31.45 -3 27.9 6.05 29.15 20.7 21.9 28 18.3 33.5 14.4 23.8 14.4 11.2 6.9 4.9 3.15 0.5 -0.6 Z"/>
</g>

<g id="space_unicorn_su_helmet_0_Layer0_0_FILL">
<path fill="#CCFFFF" fill-opacity="0.2980392156862745" stroke="none" d="
M -26.35 -34.55
Q -49.55 -32.35 -71.95 -28.3 -91 -7.2 -91 20.9 -91 54.15 -64.35 77.65 -56.3 84.75 -47.25 89.7 -35.55 89.85 -23.5 89.45 37 87.55 49.5 71.65 62 55.8 56.75 15.4 54.15 -4.8 49 -21.85 40.9 -40.9 -26.35 -34.55 Z"/>

<path fill="#DDDDDD" stroke="none" d="
M 65.2 -94.15
Q 58.5 -91.5 52.6 -84.55 40.8 -70.6 44.8 -49.2 24.8033203125 -59.35 0 -59.35 -19.5 -59.35 -36 -53.05
L -88.7 -101.15 -56.85 -41.8
Q -60.7 -39.05 -64.35 -35.85 -68.5 -32.2 -71.95 -28.3 -49.55 -32.35 -26.35 -34.55 40.9 -40.9 49 -21.85 54.15 -4.8 56.75 15.4 62 55.8 49.5 71.65 37 87.55 -23.5 89.45 -35.55 89.85 -47.25 89.7 -26.3 101.15 0 101.15 37.7 101.15 64.35 77.65 91 54.15 91 20.9 91 3.2505859375 83.5 -11.65 84.7 -16.65 84.6 -27.85 84.45 -40.2 82.65 -52.5 77.8 -85.35 65.2 -94.15 Z"/>
</g>

<g id="space_unicorn_su_eye_open_0_Layer0_0_FILL">
<path fill="#000000" stroke="none" d="
M 6.35 -12.4
Q 3.75 -17.5 0 -17.5 -3.75 -17.5 -6.4 -12.4 -9 -7.25 -9 0 -9 7.25 -6.4 12.35 -3.75 17.5 0 17.5 3.75 17.5 6.35 12.35 9 7.25 9 0 9 -7.25 6.35 -12.4 Z"/>
</g>

<g id="space_unicorn_su_upper_leg_0_Layer0_0_FILL">
<path fill="#66FF66" stroke="none" d="
M 19 -28.35
Q 15.4 -35.35 8.8 -38.95 -4.3 -46.2 -19 -29.35
L -15 33.65 -13.9 35.85
Q -12.4 38.35 -10.1 39.7 -2.85 44.1 9 35.65
L 19 -28.35 Z"/>
</g>

<g id="space_unicorn_su_lower_leg_0_Layer0_0_FILL">
<path fill="#66FF66" stroke="none" d="
M -5.05 -36.45
Q -10.85 -34.2 -15 -29.35
L 1.5 37.65 15 -27.85
Q 6.55 -40.95 -5.05 -36.45 Z"/>
</g>
</defs>

<g transform="matrix( 1.3404388427734375, 0, 0, 1.3404388427734375, 204.15,34.25) ">
<g transform="matrix( 1, 0, 0, 1, 0,0) ">
<use xlink:href="#space_unicorn_su_tail_0_Layer0_0_FILL"/>
</g>
</g>

<g transform="matrix( 0.9914398193359375, 0.13043212890625, -0.13043212890625, 0.9914398193359375, -49.8,-247.35) ">
<g transform="matrix( 1, 0, 0, 1, 0,0) ">
<use xlink:href="#space_unicorn_su_ear_0_Layer0_0_FILL"/>
</g>
</g>

<g transform="matrix( 0.9914398193359375, 0.13043212890625, -0.13043212890625, 0.9914398193359375, -154.25,-203.85) ">
<g transform="matrix( 1, 0, 0, 1, 0,0) ">
<use xlink:href="#space_unicorn_su_body_0_Layer0_0_FILL"/>
</g>
</g>

<g transform="matrix( 0.9993896484375, -0.0348968505859375, 0, 1, 37.75,-121.65) ">
<g transform="matrix( 1, 0, 0, 1, 0,0) ">
<use xlink:href="#space_unicorn_su_mane_0_Layer0_0_FILL"/>
</g>
</g>

<g transform="matrix( 1.10565185546875, -0.33551025390625, 0.33551025390625, 1.10565185546875, -88.95,-139.7) ">
<g transform="matrix( 1, 0, 0, 1, 0,0) ">
<use xlink:href="#space_unicorn_su_helmet_0_Layer0_0_FILL"/>
</g>
</g>

<g transform="matrix( 1, 0, 0, 1, -78.45,-132.95) ">
<g transform="matrix( 1, 0, 0, 1, 0,0) ">
<g transform="matrix( 1, 0, 0, 1, 0,0) ">
<use xlink:href="#space_unicorn_su_eye_open_0_Layer0_0_FILL"/>
</g>
</g>
</g>

<g transform="matrix( 1, 0, 0, 1, -21.25,51) ">
<g transform="matrix( 1.2199859619140625, 0.32525634765625, -0.26202392578125, 0.982452392578125, 1.8,46.45) ">
<g transform="matrix( 1, 0, 0, 1, 0,0) ">
<use xlink:href="#space_unicorn_su_upper_leg_0_Layer0_0_FILL"/>
</g>
</g>

<g transform="matrix( 0.9961395263671875, -0.2592620849609375, 0.2512664794921875, 0.96441650390625, -2.95,101.4) ">
<g transform="matrix( 1, 0, 0, 1, 0,0) ">
<use xlink:href="#space_unicorn_su_lower_leg_0_Layer0_0_FILL"/>
</g>
</g>
</g>

<g transform="matrix( 0.9659271240234375, 0.2587890625, -0.2587890625, 0.9659271240234375, -28.95,27.85) ">
<g transform="matrix( 1.2199859619140625, 0.32525634765625, -0.26202392578125, 0.982452392578125, 1.8,46.45) ">
<g transform="matrix( 1, 0, 0, 1, 0,0) ">
<use xlink:href="#space_unicorn_su_upper_leg_0_Layer0_0_FILL"/>
</g>
</g>

<g transform="matrix( 0.9961395263671875, -0.2592620849609375, 0.2512664794921875, 0.96441650390625, -2.95,101.4) ">
<g transform="matrix( 1, 0, 0, 1, 0,0) ">
<use xlink:href="#space_unicorn_su_lower_leg_0_Layer0_0_FILL"/>
</g>
</g>
</g>

<g transform="matrix( 0.823089599609375, -0.567779541015625, 0.567779541015625, 0.823089599609375, 109.65,37.9) ">
<g transform="matrix( 1.2199859619140625, 0.32525634765625, -0.26202392578125, 0.982452392578125, 1.8,46.45) ">
<g transform="matrix( 1, 0, 0, 1, 0,0) ">
<use xlink:href="#space_unicorn_su_upper_leg_0_Layer0_0_FILL"/>
</g>
</g>

<g transform="matrix( 0.9961395263671875, -0.2592620849609375, 0.2512664794921875, 0.96441650390625, -2.95,101.4) ">
<g transform="matrix( 1, 0, 0, 1, 0,0) ">
<use xlink:href="#space_unicorn_su_lower_leg_0_Layer0_0_FILL"/>
</g>
</g>
</g>

<g transform="matrix( 0.93707275390625, -0.3489227294921875, 0.3489227294921875, 0.93707275390625, 101,61.85) ">
<g transform="matrix( 1.2199859619140625, 0.32525634765625, -0.26202392578125, 0.982452392578125, 1.8,46.45) ">
<g transform="matrix( 1, 0, 0, 1, 0,0) ">
<use xlink:href="#space_unicorn_su_upper_leg_0_Layer0_0_FILL"/>
</g>
</g>

<g transform="matrix( 0.9961395263671875, -0.2592620849609375, 0.2512664794921875, 0.96441650390625, -2.95,101.4) ">
<g transform="matrix( 1, 0, 0, 1, 0,0) ">
<use xlink:href="#space_unicorn_su_lower_leg_0_Layer0_0_FILL"/>
</g>
</g>
</g>
</svg>
