<svg id="Layer_1" data-name="Layer 1" xmlns="http://www.w3.org/2000/svg" viewBox="0 0 1366 768"><defs><style>.cls-1{fill:#fff;opacity:0.4;}</style></defs><title>stars</title><circle class="cls-1" cx="194.05" cy="75.68" r="5.85"/><circle class="cls-1" cx="154.3" cy="219.56" r="6.12"/><circle class="cls-1" cx="212.84" cy="408.81" r="6.56"/><circle class="cls-1" cx="43.85" cy="558.13" r="4.26"/><circle class="cls-1" cx="58.88" cy="695.49" r="5.45"/><circle class="cls-1" cx="375.4" cy="207.6" r="5.85"/><circle class="cls-1" cx="345.98" cy="500.81" r="5.85"/><circle class="cls-1" cx="246.28" cy="651.35" r="3.06"/><circle class="cls-1" cx="468.59" cy="29.67" r="3.46"/><circle class="cls-1" cx="37.47" cy="15.57" r="7.45"/><circle class="cls-1" cx="387.17" cy="731.95" r="5.92"/><circle class="cls-1" cx="724.52" cy="168.77" r="3.06"/><circle class="cls-1" cx="483.88" cy="460.48" r="5.59"/><circle class="cls-1" cx="563.86" cy="270.03" r="4.06"/><circle class="cls-1" cx="596.03" cy="712.23" r="5.37"/><circle class="cls-1" cx="696.51" cy="48.02" r="3.72"/><circle class="cls-1" cx="676.46" cy="585.95" r="6.54"/><circle class="cls-1" cx="807.15" cy="40.57" r="3.72"/><circle class="cls-1" cx="724.52" cy="369.7" r="6.25"/><circle class="cls-1" cx="790.79" cy="500.81" r="4.39"/><circle class="cls-1" cx="835.98" cy="662.65" r="6.38"/><circle class="cls-1" cx="901.03" cy="69.56" r="6.12"/><circle class="cls-1" cx="880.15" cy="257.41" r="3.32"/><circle class="cls-1" cx="1020.18" cy="279.4" r="5.32"/><circle class="cls-1" cx="1102.08" cy="80.34" r="3.72"/><circle class="cls-1" cx="1040.13" cy="438.45" r="5.85"/><circle class="cls-1" cx="1126.78" cy="579.4" r="7.27"/><circle class="cls-1" cx="1237.47" cy="292.17" r="7.45"/><circle class="cls-1" cx="1219.98" cy="698.22" r="2.73"/><circle class="cls-1" cx="1277.8" cy="389.23" r="5.23"/><circle class="cls-1" cx="1322.39" cy="585.24" r="4.07"/><circle class="cls-1" cx="1304.57" cy="36.85" r="3.72"/><circle class="cls-1" cx="1018.98" cy="658.53" r="4.12"/><circle class="cls-1" cx="11.42" cy="383.06" r="7.11"/></svg>